# xmcd
#
# Track frame offsets: 
#        200
#        25872
#        46880
#        60667
#        80732
#        96900
#        113835
#        132810
#        152300
#        172502
#
# Disc length: 2536 seconds
#
# Revision: 0
# Processed by: cddbd v1.5.2PL0 Copyright (c) Steve Scherf et al.
# Submitted via: ExactAudioCopy v0.99pb3
#
DISCID=6d09e60a
DTITLE=Bobby Rush - Handyman
DYEAR=1992
DGENRE=Blues
TTITLE0=Handy Man
TTITLE1=Long Way To Go
TTITLE2=Before Sex
TTITLE3=Crazy 'bout You
TTITLE4=What's That
TTITLE5=I'm Gone
TTITLE6=Easy, Baby
TTITLE7=Love Somebody
TTITLE8=Flashback
TTITLE9=Second Hand Man
EXTD=
EXTT0=
EXTT1=
EXTT2=
EXTT3=
EXTT4=
EXTT5=
EXTT6=
EXTT7=
EXTT8=
EXTT9=
PLAYORDER=
